<?xml version="1.0" standalone="no"?>
<!DOCTYPE svg PUBLIC "-//W3C//DTD SVG 20010904//EN"
 "http://www.w3.org/TR/2001/REC-SVG-20010904/DTD/svg10.dtd">
<svg version="1.0" xmlns="http://www.w3.org/2000/svg"
 width="800.000000pt" height="800.000000pt" viewBox="0 0 800.000000 800.000000"
 preserveAspectRatio="xMidYMid meet">
<metadata>
Created by potrace 1.14, written by Peter Selinger 2001-2017
</metadata>
<g transform="translate(0.000000,800.000000) scale(0.100000,-0.100000)"
fill="#000000" stroke="none">
<path d="M3060 7114 c-157 -25 -259 -85 -275 -161 -6 -29 -3 -34 35 -58 52
-33 50 -57 -5 -67 -58 -10 -474 -149 -578 -193 -163 -69 -326 -195 -409 -318
-59 -87 -56 -117 15 -132 46 -9 44 -32 -5 -83 -88 -92 -182 -245 -227 -368
-41 -111 -55 -222 -48 -368 8 -169 70 -440 103 -453 30 -11 62 7 83 49 24 49
27 44 40 -67 9 -74 3 -171 -14 -266 -14 -72 47 -64 99 13 l35 51 12 -47 c11
-44 82 -153 119 -184 18 -15 99 -52 113 -52 6 0 19 7 29 16 16 16 18 15 24 -1
6 -15 -4 -28 -28 -37 -16 -6 5 -48 23 -48 26 0 99 -30 99 -41 0 -5 6 -9 14 -9
8 0 17 -12 20 -27 14 -68 56 -390 66 -508 12 -142 42 -358 66 -474 50 -243
163 -407 449 -651 228 -196 558 -435 591 -428 23 4 30 34 14 53 -7 8 -78 62
-159 120 -355 255 -603 476 -707 632 -105 157 -146 329 -194 818 -6 61 -31
240 -55 399 -25 159 -45 293 -45 299 0 5 -11 2 -25 -7 -37 -25 -38 -20 -8 37
30 58 247 281 266 274 7 -2 16 -20 21 -39 9 -37 -15 -161 -45 -235 -12 -30
-11 -34 15 -57 15 -15 37 -26 49 -26 35 0 169 114 333 283 108 112 184 203
279 333 77 106 166 216 220 270 90 91 202 174 235 174 9 0 26 11 38 25 17 20
31 25 66 25 60 0 138 -53 244 -168 181 -195 252 -319 351 -609 22 -67 41 -127
41 -133 0 -6 7 -18 15 -27 21 -21 60 -9 82 24 23 34 30 193 14 303 -7 44 -9
85 -6 90 11 18 52 -19 137 -123 143 -175 384 -396 468 -430 14 -5 35 -14 47
-19 27 -13 43 -3 43 26 0 19 17 84 25 94 1 1 29 -23 62 -55 74 -73 157 -117
212 -111 23 2 37 -1 33 -6 -3 -5 -9 -53 -13 -105 -50 -612 -83 -817 -178
-1094 -117 -342 -236 -539 -447 -736 -218 -204 -404 -303 -730 -387 -100 -27
-123 -29 -293 -29 -179 0 -184 1 -198 22 -27 41 -63 25 -63 -28 0 -46 95 -70
280 -70 238 -1 557 87 754 207 248 152 490 405 614 642 162 312 256 665 297
1121 9 96 17 175 18 176 1 0 31 15 66 33 82 41 129 42 172 4 49 -44 50 -103 5
-287 -21 -81 -42 -187 -47 -234 -13 -111 -37 -148 -111 -165 -21 -5 -35 0 -61
24 -36 31 -61 38 -72 19 -13 -20 5 -54 43 -82 32 -25 44 -28 89 -25 62 5 125
43 149 90 9 18 21 68 26 113 5 44 25 148 45 230 43 181 47 263 14 321 -33 58
-66 78 -137 82 -51 4 -72 0 -120 -22 -31 -14 -59 -25 -61 -22 -2 2 -1 22 3 45
5 30 10 39 17 32 22 -22 54 -9 122 49 174 148 247 291 249 488 1 77 2 82 16
60 50 -76 93 -119 113 -116 35 5 31 35 -11 86 -39 46 -82 121 -82 142 0 6 17
0 38 -13 20 -13 47 -27 59 -31 11 -4 27 -13 33 -21 29 -35 76 -3 52 35 -6 10
-7 22 -1 31 25 39 -6 271 -52 395 -24 63 -73 130 -109 149 -14 7 -60 29 -102
49 -43 21 -78 41 -78 46 0 4 52 10 115 12 124 3 149 13 128 48 -11 16 -9 19
10 22 14 2 23 11 25 25 2 17 -7 29 -40 49 -88 56 -201 196 -240 296 -10 26
-18 70 -18 97 0 51 -18 78 -45 67 -9 -3 -15 -19 -16 -43 -1 -34 -2 -32 -14 22
-15 67 -49 152 -71 176 -8 9 -17 26 -19 39 -2 12 -6 24 -7 26 -13 12 -399 197
-453 216 -95 34 -205 52 -284 45 -63 -6 -64 -6 -26 6 42 13 58 44 33 64 -37
30 -465 44 -569 19 -56 -13 -57 -13 -95 17 -52 40 -223 120 -334 158 -144 48
-210 28 -143 -43 28 -30 28 -30 -22 5 -75 52 -168 96 -254 119 -102 27 -346
33 -481 12z m3060 -1754 c19 -61 50 -224 50 -258 0 -39 -14 8 -45 149 -18 85
-38 168 -44 184 -10 28 -10 29 4 10 9 -11 25 -49 35 -85z m-927 -768 c-3 -12
-9 -22 -14 -22 -5 0 -3 11 3 25 13 30 20 28 11 -3z m-2880 -179 c3 -24 4 -43
2 -43 -1 0 -17 6 -35 14 -29 12 -30 14 -11 19 16 4 21 13 21 38 0 45 16 25 23
-28z m3336 -37 c9 -10 8 -16 -4 -26 -13 -11 -15 -8 -15 14 0 30 3 32 19 12z"/>
<path d="M4600 4539 c-69 -4 -138 -12 -155 -17 -85 -29 -145 -80 -145 -125 0
-10 11 -29 24 -42 14 -13 26 -32 28 -42 4 -23 27 -22 178 6 82 16 134 20 180
16 73 -7 189 -37 257 -66 33 -14 49 -16 58 -9 7 6 17 10 21 9 24 -4 34 3 34
25 0 32 -99 123 -193 177 -39 23 -79 47 -87 54 -23 19 -64 22 -200 14z"/>
<path d="M3094 4500 c-92 -8 -129 -20 -150 -49 -10 -13 -16 -14 -37 -2 -16 8
-31 10 -41 4 -44 -25 -231 -275 -222 -298 10 -28 38 -30 58 -5 11 13 25 25 31
26 7 1 39 18 72 37 57 33 72 37 280 66 121 17 245 33 275 35 60 4 91 13 102
30 4 6 8 39 8 74 0 73 -14 86 -56 53 -33 -26 -44 -26 -44 -1 0 40 -63 47 -276
30z"/>
<path d="M4230 4396 c0 -62 25 -104 54 -93 16 6 17 15 11 70 -9 75 -10 77 -41
77 -22 0 -24 -3 -24 -54z"/>
<path d="M2113 4247 c-67 -76 -64 -185 7 -354 36 -84 43 -113 51 -208 10 -127
34 -186 90 -223 26 -18 43 -23 73 -19 46 6 80 35 70 61 -6 15 -14 16 -53 11
-40 -5 -49 -3 -68 17 -31 33 -43 71 -43 141 0 80 -18 151 -65 257 -47 109 -57
169 -38 232 10 36 21 52 44 64 39 20 35 48 -7 52 -25 2 -37 -4 -61 -31z"/>
<path d="M3140 4077 c-36 -12 -51 -40 -31 -60 7 -7 23 -6 53 2 24 7 62 11 83
9 39 -4 40 -4 14 -15 -58 -25 -78 -141 -36 -204 33 -50 67 -63 111 -45 40 17
84 84 93 143 3 21 12 46 20 55 21 24 13 49 -26 75 -72 49 -202 67 -281 40z
m228 -94 c11 -19 -3 -59 -24 -67 -36 -14 -64 27 -44 64 13 25 55 27 68 3z"/>
<path d="M4500 4075 c-81 -26 -133 -93 -96 -124 11 -9 22 -4 51 24 21 19 40
34 42 32 2 -2 -2 -18 -8 -36 -24 -68 21 -154 87 -167 66 -12 114 47 114 142
l0 47 24 -23 c29 -27 56 -21 56 13 0 72 -161 127 -270 92z m130 -84 c0 -33
-20 -54 -43 -45 -39 15 -24 74 18 74 21 0 25 -5 25 -29z"/>
<path d="M4487 3126 c-26 -7 -58 -11 -70 -9 -12 2 -110 -10 -217 -27 -327 -52
-493 -57 -632 -20 -42 12 -68 2 -68 -26 0 -25 44 -42 163 -64 135 -24 207 -21
513 25 93 14 196 26 229 27 33 0 66 5 72 11 7 5 1 -11 -13 -37 -14 -25 -30
-46 -35 -46 -5 0 -38 -27 -74 -59 -102 -93 -247 -150 -343 -136 -56 8 -201 83
-266 137 -38 33 -52 39 -65 31 -45 -28 -12 -73 112 -149 121 -75 190 -97 283
-91 156 11 316 109 440 269 64 81 88 132 74 157 -12 24 -34 25 -103 7z"/>
<path d="M4859 2276 c-8 -18 -9 -71 -2 -195 9 -178 17 -206 51 -185 15 10 17
25 13 120 -7 215 -14 278 -33 282 -11 2 -22 -6 -29 -22z"/>
<path d="M3567 1963 c-4 -3 -7 -58 -7 -122 0 -110 -13 -237 -24 -248 -12 -12
-322 -95 -481 -128 -309 -65 -378 -90 -461 -167 -111 -102 -215 -270 -369
-594 -152 -322 -239 -527 -280 -662 l-13 -42 2231 0 c2144 0 2241 1 2472 20
132 11 299 20 370 20 141 0 155 5 155 51 0 29 -24 94 -39 103 -5 4 -22 43 -37
89 -15 45 -84 201 -153 347 -131 274 -232 443 -361 603 -162 202 -429 392
-600 428 -36 8 -208 12 -510 13 l-455 1 -59 28 c-32 15 -64 27 -72 27 -7 0
-56 -29 -108 -65 -250 -169 -507 -252 -751 -243 -136 6 -219 28 -307 84 -29
19 -65 42 -81 52 -17 11 -25 22 -21 32 13 31 17 336 5 358 -12 22 -31 28 -44
15z"/>
</g>
</svg>
